<svg xmlns="http://www.w3.org/2000/svg" width="512" height="512" viewBox="0 0 174.661 174.661"><path d="M142.395 29.698c-7.563-16.355-22.542-24.728-34.039-27.103C80.638-3.156 59.558.668 45.635 13.888 22.04 36.295 27.995 77.145 28.263 78.871c.262 1.702 1.891 2.886 3.544 2.606a3.116 3.116 0 0 0 2.612-3.547c-.063-.393-5.711-39.391 15.524-59.537C62.301 6.678 81.537 3.417 107.083 8.7c10.011 2.07 23.054 9.365 29.643 23.617 8.312 17.991 4.213 43.014-11.862 72.373-4.39 8.031-6.053 14.729-7.788 21.83-1.937 7.867-4.11 16.781-10.576 29.715-3.824 7.654-16.88 12.982-29.771 12.1-5.967-.396-20.389-2.881-25.525-17.714-6.01-10.54-13.643-29.849-8.507-36.772 2.962-4 10.352-3.288 15.908-2.064 1.346.816 2.968 6.918 3.934 10.577 2.308 8.726 5.045 18.517 12.178 17.981.441.024 10.979.895 15.202-6.242 3.337-5.626 1.564-13.761-5.401-24.801 5.45-5.236 19.352-20.441 12.775-33.837-2.046-4.181-8.659-9.996-17.007-9.996h-.226c-4.713.061-11.049 2.058-16.593 10.324-2.476-7.599-5.542-20.783-1.167-30.702 2.469-5.611 6.936-9.393 13.643-11.542 4.99-1.62 21.708-3.212 31.438 5.824 7.928 7.344 9.772 20.134 5.498 38.03a3.136 3.136 0 0 0 2.302 3.763c1.693.42 3.355-.646 3.77-2.305 4.835-20.24 2.381-35.062-7.313-44.046-12.823-11.874-32.906-8.687-37.588-7.191-8.4 2.701-14.273 7.739-17.467 14.979-7.624 17.278 3.038 40.91 3.504 41.899.505 1.111 1.617 1.82 2.832 1.82s2.326-.709 2.832-1.814c3.809-8.299 8.777-12.72 14.386-12.793h.137c5.298 0 10.103 3.821 11.411 6.497 4.811 9.795-7.934 23.684-13.25 28.208a3.104 3.104 0 0 0-.569 4.098c8.662 12.909 7.907 18.322 6.68 20.399-2.177 3.689-9.204 3.215-9.81 3.215-2.612-.049-4.826-8.281-6.18-13.372-1.976-7.478-3.69-13.938-8.455-15.01-10.89-2.466-18.438-.98-22.408 4.391-9.198 12.422 6.302 40.419 7.861 43.038 4.305 12.568 15.521 20.35 30.778 21.373 1.111.079 2.207.115 3.3.109 14.458 0 27.788-6.297 32.458-15.637 6.776-13.566 9.048-22.835 11.058-31.019 1.705-6.978 3.19-13.007 7.197-20.325 17.298-31.595 21.354-57.834 12.05-77.98z" fill="#FFF"/></svg>