<svg xmlns="http://www.w3.org/2000/svg" viewBox="0 0 291.204 291.204" width="512" height="512"><path d="M212.19 157.175c-5.585-12.848-18.15-69.904-27.861-121.711C182.573 15.542 165.645 0 145.602 0s-36.971 15.542-38.727 35.464c-9.711 51.807-22.276 108.863-27.861 121.711-32.406 1.935-58.182 28.913-58.182 61.798 0 34.137 27.772 61.908 61.909 61.908a61.882 61.882 0 0 0 25.538-5.529c9.745 10.08 23.277 15.853 37.323 15.853s27.578-5.772 37.323-15.853a61.879 61.879 0 0 0 25.538 5.529c34.137 0 61.909-27.771 61.909-61.908 0-32.885-25.776-59.864-58.182-61.798zm-3.728 108.706a46.908 46.908 0 0 1-16.611-3.064 52.257 52.257 0 0 0 4.837-14.36c2.014.366 4.16.571 6.396.571 11.281 0 20.425-5.038 20.425-11.251 0-6.214-9.145-11.251-20.425-11.251-10.447 0-19.046 4.323-20.263 9.896l-.411.032c.595 7.721-1.286 15.416-5.243 21.961l-2.329 2.693c-.213.247-.425.495-.646.734-7.352 7.938-17.772 12.492-28.592 12.492s-21.24-4.554-28.59-12.49c-.218-.234-.424-.477-.632-.718l-2.327-2.684c-3.969-6.552-5.857-14.257-5.261-21.989l-.41-.032c-1.217-5.574-9.817-9.896-20.263-9.896-11.281 0-20.425 5.037-20.425 11.251 0 6.214 9.145 11.251 20.425 11.251 2.236 0 4.382-.205 6.396-.571a52.246 52.246 0 0 0 4.837 14.36 46.881 46.881 0 0 1-16.611 3.064c-25.866 0-46.909-21.043-46.909-46.908 0-25.866 21.043-46.909 46.909-46.909 7.062 0 10.164-6.687 15.364-25.519 2.971-10.759 6.537-25.711 10.599-44.44 6.889-31.761 12.925-63.936 12.985-64.257l.105-.805C122.748 24.683 133.205 15 145.602 15s22.854 9.683 23.807 22.043l.105.805c.061.321 6.097 32.496 12.985 64.257 4.062 18.729 7.628 33.682 10.599 44.44 5.2 18.832 8.303 25.519 15.364 25.519 25.866 0 46.909 21.043 46.909 46.909.001 25.865-21.042 46.908-46.909 46.908z" fill="#FFF"/><path d="M132.398 76.158c-4.052-.839-8.028 1.753-8.876 5.808l-14 67a7.5 7.5 0 0 0 14.684 3.068l14-67a7.502 7.502 0 0 0-5.808-8.876z" fill="#FFF"/><circle cx="111.544" cy="175.717" r="7.5" fill="#FFF"/></svg>